# xmcd CD database file
#
# Track frame offsets:
#	150
#	31038
#	52985
#	83078
#	122038
#	148823
#	173400
#	215465
#	233698
#	256908
#
# Disc length: 3802 seconds
#
# Revision: 1
# Processed by: cddbd v1.5.1PL2 Copyright (c) Steve Scherf et al.
# Submitted via: CDex 1.51
#
DISCID=790ed80a
DTITLE=Benny Golson - Autumn Leaves
DYEAR=1959
DGENRE=Jazz
TTITLE0=Autumn Leaves
TTITLE1=Staccato Swing
TTITLE2=Soul Me
TTITLE3=Blues After Dark
TTITLE4=Yesterdays
TTITLE5=I Did't Know What Time It Was
TTITLE6=The Stroller
TTITLE7=Drumboogie
TTITLE8=April In Paris
TTITLE9=Baubles,Banglesand Beads
EXTD=YEAR: 1959
EXTT0=
EXTT1=
EXTT2=
EXTT3=
EXTT4=
EXTT5=
EXTT6=
EXTT7=
EXTT8=
EXTT9=
PLAYORDER=
